<svg width="163" height="114" viewBox="0 0 163 114" fill="none" xmlns="http://www.w3.org/2000/svg">
<path d="M26.0392 26.5324C22.8063 26.6593 19.6431 25.5681 17.1722 23.4735C16.0813 22.5163 15.207 21.3365 14.6075 20.013C14.0081 18.6896 13.6974 17.253 13.6963 15.7994C13.6952 14.3459 14.0036 12.9088 14.601 11.5844C15.1984 10.2601 16.071 9.07891 17.1603 8.12C19.7165 6.16109 22.8438 5.09883 26.0608 5.09668C29.2779 5.09454 32.4066 6.15264 34.9653 8.10814C36.0549 9.06945 36.9274 10.2527 37.5248 11.579C38.1221 12.9053 38.4305 14.3441 38.4294 15.7994C38.4283 17.2547 38.1176 18.6931 37.5183 20.0184C36.9189 21.3438 36.0445 22.5257 34.9535 23.4854C32.4638 25.5783 29.2852 26.6647 26.0392 26.5324ZM26.0392 23.5684C28.4318 23.6715 30.779 22.8911 32.6363 21.375C33.4383 20.6846 34.0818 19.8284 34.5226 18.865C34.9634 17.9016 35.1911 16.854 35.19 15.794C35.1888 14.7341 34.959 13.6869 34.5161 12.7245C34.0732 11.7621 33.4279 10.9072 32.6244 10.2185C30.7298 8.78929 28.4238 8.01544 26.053 8.0133C23.6822 8.01116 21.3747 8.78085 19.4776 10.2067C18.6797 10.9005 18.0398 11.7582 17.6012 12.7216C17.1627 13.6851 16.9357 14.7318 16.9357 15.7908C16.9357 16.8499 17.1627 17.8966 17.6012 18.8601C18.0398 19.8235 18.6797 20.6812 19.4776 21.375C21.3218 22.8897 23.6576 23.6704 26.0392 23.5684Z" fill="black"/>
<path d="M48.36 25.8926V8.46432H39.8477V5.64258H60.0408V8.46432H51.5048V25.8926H48.36Z" fill="black"/>
<path d="M66.4009 44.2439V53.0885H63.2324V32.8858H77.1359C78.8784 32.7821 80.5996 33.3126 81.9832 34.3797C82.5689 34.8935 83.0308 35.5339 83.3338 36.2527C83.6369 36.9715 83.7734 37.7499 83.733 38.5293C83.7565 39.9043 83.2627 41.2378 82.3497 42.264C81.4177 43.3208 80.1379 44.0067 78.7438 44.1965L84.3478 53.0885H80.9192L75.197 44.2439L66.4009 44.2439ZM66.4009 41.2799H77.1359C78.0246 41.34 78.9064 41.0885 79.6305 40.5685C79.9217 40.3185 80.1511 40.0043 80.3008 39.6505C80.4506 39.2967 80.5165 38.9129 80.4936 38.5293C80.5173 38.1473 80.4516 37.765 80.3018 37.413C80.1519 37.0609 79.922 36.7489 79.6305 36.5019C78.9031 35.9898 78.0227 35.7429 77.1359 35.8024H66.4009V41.2799Z" fill="black"/>
<path d="M89.4795 32.8857H92.648V45.8562C92.648 47.8006 93.1051 49.1127 94.0194 49.7924C94.9332 50.4721 96.746 50.812 99.4579 50.812C102.185 50.812 104.006 50.4721 104.92 49.7924C105.834 49.1132 106.291 47.8012 106.291 45.8562V32.8857H109.436V46.6861C109.436 49.168 108.652 50.9622 107.084 52.0688C105.515 53.1753 102.957 53.7286 99.4106 53.7286C95.879 53.7286 93.341 53.1832 91.7968 52.0925C90.2514 51.0017 89.4789 49.1996 89.4795 46.6861L89.4795 32.8857Z" fill="black"/>
<path d="M121.141 80.334V62.9057H112.628V60.084H132.822V62.9057H124.286V80.334H121.141Z" fill="black"/>
<path d="M130.362 80.3321L140.624 60.082H142.611L152.967 80.3321H149.586L146.961 75.1866H136.297L133.696 80.3321H130.362ZM137.669 72.5071H145.566L141.641 64.7533L137.669 72.5071Z" fill="black"/>
<path d="M160.629 76.681C160.891 76.6761 161.15 76.7287 161.389 76.8352C161.628 76.9418 161.84 77.0996 162.012 77.2975C162.393 77.7365 162.592 78.3049 162.568 78.8862C162.588 79.4491 162.388 79.9975 162.012 80.4156C161.839 80.6106 161.625 80.7656 161.387 80.87C161.148 80.9743 160.889 81.0256 160.629 81.0203C160.363 81.0266 160.099 80.9759 159.855 80.8716C159.61 80.7673 159.39 80.6119 159.21 80.4156C158.827 80.0008 158.624 79.4511 158.643 78.8862C158.624 78.3051 158.831 77.7394 159.222 77.3093C159.397 77.1093 159.614 76.9495 159.857 76.8411C160.1 76.7326 160.363 76.678 160.629 76.681Z" fill="black"/>
<path d="M6.61045 1.97559C1.59078 7.37459 1.13585 15.848 2.07199 22.8381C2.54238 26.4149 3.77209 29.8489 5.67818 32.9086C7.58428 35.9683 10.1225 38.5826 13.1215 40.5752C18.3807 43.9428 24.7991 45.1166 30.9922 44.6779C42.2753 43.8785 51.9413 38.969 60.5155 31.6587C66.3496 26.6848 71.8095 21.1729 78.2953 17.127C85.5021 12.6313 94.0081 10.0687 102.425 10.7808C108.591 11.3025 114.739 13.6739 119.121 18.1337C123.503 22.5935 125.881 29.2742 124.509 35.4339C123.562 39.6808 120.994 43.3576 118.191 46.6413C112.997 52.7279 106.831 57.8766 101.484 63.8246C96.1374 69.7725 91.5089 76.8197 90.3792 84.81C89.7371 88.8899 90.2464 93.0687 91.8493 96.8735C94.3901 102.584 99.7026 106.617 105.428 108.889C127.96 117.828 152.47 108.726 160.605 84.9067" stroke="#FF6058" stroke-width="2" stroke-linecap="round" stroke-linejoin="round"/>
</svg>
