<svg width="910" height="464" viewBox="0 0 910 464" fill="none" xmlns="http://www.w3.org/2000/svg">
<path d="M75.4757 131.617C55.7201 132.391 36.3905 125.741 21.2915 112.978C14.6257 107.145 9.28266 99.9558 5.61963 91.8912C1.9566 83.8267 0.0581295 75.0728 0.0512881 66.2153C0.0444467 57.3578 1.92936 48.6011 5.57993 40.5308C9.2305 32.4606 14.5625 25.2631 21.2193 19.4199C36.8393 7.48313 55.9491 1.01015 75.608 0.99709C95.2669 0.984033 114.385 7.43163 130.021 19.3476C136.679 25.2055 142.011 32.416 145.661 40.4979C149.311 48.5798 151.196 57.3473 151.189 66.2153C151.182 75.0833 149.284 83.8478 145.621 91.9241C141.959 100 136.616 107.203 129.949 113.05C114.735 125.803 95.3114 132.424 75.4757 131.617ZM75.4757 113.556C90.0962 114.184 104.439 109.429 115.789 100.19C120.69 95.9836 124.622 90.7658 127.316 84.8954C130.009 79.0251 131.401 72.6412 131.394 66.1823C131.387 59.7235 129.982 53.3426 127.276 47.4779C124.57 41.6133 120.626 36.4039 115.716 32.2074C104.139 23.4983 90.0474 18.7828 75.56 18.7697C61.0726 18.7567 46.9724 23.4469 35.3793 32.1352C30.5035 36.363 26.5932 41.5894 23.9133 47.4602C21.2334 53.331 19.8465 59.7092 19.8465 66.1628C19.8465 72.6164 21.2334 78.9946 23.9133 84.8654C26.5932 90.7363 30.5035 95.9626 35.3793 100.19C46.649 109.42 60.9221 114.178 75.4757 113.556Z" fill="black"/>
<path d="M211.877 127.717V21.5158H159.86V4.32129H283.255V21.5158H231.094V127.717H211.877Z" fill="black"/>
<path d="M322.122 239.545V293.44H302.76V170.334H387.721C398.368 169.702 408.886 172.934 417.341 179.437C420.92 182.568 423.742 186.47 425.595 190.85C427.447 195.23 428.281 199.974 428.034 204.723C428.178 213.101 425.16 221.227 419.581 227.48C413.885 233.92 406.065 238.1 397.546 239.256L431.79 293.44H410.839L375.872 239.545L322.122 239.545ZM322.122 221.484H387.721C393.151 221.85 398.54 220.318 402.964 217.149C404.744 215.626 406.146 213.711 407.061 211.555C407.976 209.399 408.379 207.06 408.238 204.723C408.383 202.395 407.982 200.065 407.066 197.92C406.151 195.775 404.746 193.874 402.964 192.369C398.519 189.248 393.14 187.744 387.721 188.106H322.122V221.484Z" fill="black"/>
<path d="M463.146 170.334H482.508V249.371C482.508 261.219 485.302 269.214 490.889 273.356C496.472 277.498 507.55 279.569 524.122 279.569C540.787 279.569 551.912 277.498 557.499 273.356C563.083 269.217 565.876 261.222 565.88 249.371V170.334H585.097V254.428C585.097 269.551 580.305 280.485 570.72 287.227C561.136 293.97 545.507 297.341 523.833 297.342C502.252 297.342 486.743 294.018 477.307 287.372C467.863 280.725 463.143 269.744 463.147 254.428L463.146 170.334Z" fill="black"/>
<path d="M656.623 459.459V353.258H604.603V336.063H728.002V353.258H675.841V459.459H656.623Z" fill="black"/>
<path d="M712.975 459.452L775.684 336.057H787.821L851.108 459.452H830.446L814.408 428.098H749.242L733.348 459.452H712.975ZM757.622 411.77H805.883L781.897 364.521L757.622 411.77Z" fill="black"/>
<path d="M897.923 437.201C899.52 437.171 901.105 437.492 902.565 438.141C904.025 438.79 905.325 439.752 906.373 440.958C908.699 443.633 909.915 447.096 909.771 450.639C909.891 454.069 908.672 457.411 906.372 459.958C905.314 461.146 904.01 462.091 902.551 462.727C901.093 463.363 899.514 463.675 897.923 463.643C896.299 463.681 894.685 463.372 893.19 462.737C891.695 462.102 890.353 461.154 889.253 459.958C886.914 457.431 885.667 454.081 885.786 450.639C885.669 447.098 886.938 443.651 889.322 441.03C890.396 439.811 891.72 438.838 893.205 438.177C894.689 437.516 896.298 437.183 897.923 437.201Z" fill="black"/>
</svg>
